<?xml version="1.0" encoding="utf-8"?>
<!-- Generator: Adobe Illustrator 17.1.0, SVG Export Plug-In . SVG Version: 6.00 Build 0)  -->
<!DOCTYPE svg PUBLIC "-//W3C//DTD SVG 1.1//EN" "http://www.w3.org/Graphics/SVG/1.1/DTD/svg11.dtd">
<svg version="1.1" id="Layer_1" xmlns="http://www.w3.org/2000/svg" xmlns:xlink="http://www.w3.org/1999/xlink" x="0px" y="0px"
	 viewBox="0 0 800 800" enable-background="new 0 0 800 800" xml:space="preserve">
<g>
	<g>
		<path fill="#F04D2F" d="M166.2,604.8V146.9l81.9-81.9L652,14.7v152.5l-37.5,37.5L652,200v279.6l-197.4,222l-82.9,82.9L166.2,604.8
			z M574.1,532.2l54.7-61.5V226.3l-41,5.1l-17.7,17.7L321.9,280v29.3l252.2-31.4V532.2z M418.5,462.8v-9.5l-9.5,1.2L418.5,462.8z"/>
		<path fill="#F1F2F2" d="M644.6,23.1v141L594,214.7l50.6-6.3v268.4l-1.1,1.2L449.2,696.5l-77.9,77.9l-197.6-173V481.8l6.3-6.3
			l-6.3,0.8V150l77.9-77.9L644.6,23.1 M314.5,317.7l252.2-31.4v265.5l69.5-78.2V217.9l-51.8,6.5L566.7,242l-252.2,31.4V317.7
			 M425.9,479.1v-34.3l-33.5,4.2v0.8L425.9,479.1 M659.4,6.3l-16.7,2.1l-393,49l-5.1,0.6l-3.6,3.6l-77.9,77.9l-4.3,4.3v6.1v326.3
			v16.8v108.3v6.7l5.1,4.4l197.6,173l10.4,9.1l9.8-9.8l77.9-77.9l0.3-0.3l0.3-0.3l194.4-218.6l1.1-1.2l3.7-4.2v-5.6V208.4v-16.8
			l-16.7,2.1l-7.7,1l20-20l4.3-4.3v-6.1v-141V6.3L659.4,6.3z M591.3,238.4l30.1-3.8v233.3l-39.8,44.8V286.3v-16.8l-16.7,2.1
			l-235.5,29.4v-14.4l239.2-29.8l5.1-0.6l3.6-3.6L591.3,238.4L591.3,238.4z"/>
	</g>
	<g>
		<polygon fill="#1186C8" points="632,153.1 632,37.4 264.1,83.2 264.1,384.2 516.3,352.7 516.3,438.5 448.1,515.2 379.8,455.5 
			379.8,400.6 264.1,415 264.1,517.8 448.1,678.9 632,472 632,338.3 632,222.6 632,222.6 379.8,254 379.8,184.5 		"/>
	</g>
	<g>
		<path fill="#F1F2F2" d="M448.4,684.8l-188.5-165V411.3L384,395.8v57.8l63.7,55.8l64.4-72.5v-79.4l-252.2,31.4V79.5l376.3-46.9
			v124.1L384,188.2v61.1l252.2-31.4v255.7l-1.1,1.2L448.4,684.8z M268.3,515.9L447.7,673l180.1-202.6v-243l-252.2,31.4v-78
			l252.2-31.4V42.1L268.3,86.9v292.5L520.5,348v92.1l-72.1,81.1l-72.8-63.7v-52.1l-107.3,13.4V515.9z"/>
	</g>
</g>
</svg>
